# xmcd
#
# Track frame offsets: 
#        150
#        21492
#        42282
#        60180
#        79615
#        99340
#        122730
#        143837
#        165207
#        186532
#
# Disc length: 2840 seconds
#
# Revision: 2
# Processed by: cddbd v1.5.2PL0 Copyright (c) Steve Scherf et al.
# Submitted via: ExactAudioCopy v1.0b2
#
DISCID=790b160a
DTITLE=盛噶仁波切 - 我要你幸福
DYEAR=2007
DGENRE=New Age
TTITLE0=轮回
TTITLE1=我要你幸福
TTITLE2=时尚
TTITLE3=让我照顾你
TTITLE4=就是这个光
TTITLE5=姑娘——曲几卓玛
TTITLE6=开始懂
TTITLE7=把爱留给你
TTITLE8=今天
TTITLE9=喇嘛钦诺
EXTD=YEAR: 2007
EXTT0=
EXTT1=
EXTT2=
EXTT3=
EXTT4=
EXTT5=
EXTT6=
EXTT7=
EXTT8=
EXTT9=
PLAYORDER=
